<svg width="50" height="50" viewBox="0 0 50 50" fill="none" xmlns="http://www.w3.org/2000/svg">
<path d="M50 25C50 38.8066 38.8066 50 25 50C11.1933 50 0 38.8066 0 25C0 11.1933 11.1933 0 25 0C38.8066 0 50 11.1933 50 25Z" fill="#5FA9DD"/>
<path d="M40.3125 17.9672C39.2419 18.4419 38.0886 18.7636 36.881 18.9075C38.1148 18.1671 39.0613 16.9967 39.5096 15.6019C38.3541 16.2854 37.0746 16.7835 35.7146 17.0514C34.6245 15.8894 33.0708 15.1645 31.3518 15.1645C28.0508 15.1645 25.3765 17.8413 25.3765 21.1395C25.3765 21.6076 25.4287 22.0648 25.531 22.5022C20.5654 22.252 16.1612 19.8733 13.2148 16.2568C12.6991 17.1405 12.4053 18.1671 12.4053 19.2616C12.4053 21.3356 13.4607 23.1656 15.0622 24.2362C14.083 24.2054 13.1626 23.9359 12.3553 23.4877C12.3553 23.5138 12.3553 23.5377 12.3553 23.5639C12.3553 26.4579 14.416 28.8733 17.1491 29.4216C16.6486 29.5587 16.1199 29.6332 15.5759 29.6332C15.1907 29.6332 14.8165 29.5957 14.4509 29.5261C15.2125 31.9001 17.419 33.6279 20.0345 33.6757C17.9891 35.2794 15.4127 36.2325 12.6122 36.2325C12.1291 36.2325 11.6526 36.2063 11.1869 36.1498C13.8307 37.8449 16.9707 38.835 20.3457 38.835C31.3367 38.835 37.3489 29.7285 37.3489 21.8321C37.3489 21.5729 37.3424 21.3161 37.3315 21.0593C38.4999 20.2172 39.5117 19.1642 40.3125 17.9672Z" fill="#F2F2F2"/>
</svg>
